<svg xmlns="http://www.w3.org/2000/svg" width="18" height="22" viewBox="0 0 18 22" shape-rendering="crispEdges"><!--
  Cursor del sitio: mano apuntando, estilo Windows 95.
  Vectorial pero dibujado con rects de 1px, para que los bordes
  salgan duros a cualquier densidad. 1 px de arte = 1 px CSS.
  Hotspot: 5 0 (punta del indice).

  Para editarlo, cambia este bitmap y vuelve a generar los rects:
  '#' negro, 'o' blanco, '.' transparente.

     .....##...........
     ....#oo#..........
     ....#oo#..........
     ....#oo#..........
     ....#oo#..........
     ....#oo#..........
     ....#oo#..........
     ....#oo#..........
     ....#oo####.......
     ....#oo#oo####....
     ....#oo#oo#oo####.
     ..###oo#oo#oo#oo#.
     .#oooooooooooooo#.
     .#oooooooooooooo#.
     .#oooooooooooooo#.
     ..#ooooooooooooo#.
     ..#oooooooooooo#..
     ...#ooooooooooo#..
     ...#oooooooooo#...
     ....#ooooooooo#...
     ....#ooooooooo#...
     ....###########...
--><g fill="#000000"><rect x="5" y="0" width="2" height="1"/><rect x="4" y="1" width="1" height="1"/><rect x="7" y="1" width="1" height="1"/><rect x="4" y="2" width="1" height="1"/><rect x="7" y="2" width="1" height="1"/><rect x="4" y="3" width="1" height="1"/><rect x="7" y="3" width="1" height="1"/><rect x="4" y="4" width="1" height="1"/><rect x="7" y="4" width="1" height="1"/><rect x="4" y="5" width="1" height="1"/><rect x="7" y="5" width="1" height="1"/><rect x="4" y="6" width="1" height="1"/><rect x="7" y="6" width="1" height="1"/><rect x="4" y="7" width="1" height="1"/><rect x="7" y="7" width="1" height="1"/><rect x="4" y="8" width="1" height="1"/><rect x="7" y="8" width="4" height="1"/><rect x="4" y="9" width="1" height="1"/><rect x="7" y="9" width="1" height="1"/><rect x="10" y="9" width="4" height="1"/><rect x="4" y="10" width="1" height="1"/><rect x="7" y="10" width="1" height="1"/><rect x="10" y="10" width="1" height="1"/><rect x="13" y="10" width="4" height="1"/><rect x="2" y="11" width="3" height="1"/><rect x="7" y="11" width="1" height="1"/><rect x="10" y="11" width="1" height="1"/><rect x="13" y="11" width="1" height="1"/><rect x="16" y="11" width="1" height="1"/><rect x="1" y="12" width="1" height="1"/><rect x="16" y="12" width="1" height="1"/><rect x="1" y="13" width="1" height="1"/><rect x="16" y="13" width="1" height="1"/><rect x="1" y="14" width="1" height="1"/><rect x="16" y="14" width="1" height="1"/><rect x="2" y="15" width="1" height="1"/><rect x="16" y="15" width="1" height="1"/><rect x="2" y="16" width="1" height="1"/><rect x="15" y="16" width="1" height="1"/><rect x="3" y="17" width="1" height="1"/><rect x="15" y="17" width="1" height="1"/><rect x="3" y="18" width="1" height="1"/><rect x="14" y="18" width="1" height="1"/><rect x="4" y="19" width="1" height="1"/><rect x="14" y="19" width="1" height="1"/><rect x="4" y="20" width="1" height="1"/><rect x="14" y="20" width="1" height="1"/><rect x="4" y="21" width="11" height="1"/></g><g fill="#ffffff"><rect x="5" y="1" width="2" height="1"/><rect x="5" y="2" width="2" height="1"/><rect x="5" y="3" width="2" height="1"/><rect x="5" y="4" width="2" height="1"/><rect x="5" y="5" width="2" height="1"/><rect x="5" y="6" width="2" height="1"/><rect x="5" y="7" width="2" height="1"/><rect x="5" y="8" width="2" height="1"/><rect x="5" y="9" width="2" height="1"/><rect x="8" y="9" width="2" height="1"/><rect x="5" y="10" width="2" height="1"/><rect x="8" y="10" width="2" height="1"/><rect x="11" y="10" width="2" height="1"/><rect x="5" y="11" width="2" height="1"/><rect x="8" y="11" width="2" height="1"/><rect x="11" y="11" width="2" height="1"/><rect x="14" y="11" width="2" height="1"/><rect x="2" y="12" width="14" height="1"/><rect x="2" y="13" width="14" height="1"/><rect x="2" y="14" width="14" height="1"/><rect x="3" y="15" width="13" height="1"/><rect x="3" y="16" width="12" height="1"/><rect x="4" y="17" width="11" height="1"/><rect x="4" y="18" width="10" height="1"/><rect x="5" y="19" width="9" height="1"/><rect x="5" y="20" width="9" height="1"/></g></svg>