<?xml version="1.0" encoding="UTF-8"?>
<svg id="Capa_5" data-name="Capa 5" xmlns="http://www.w3.org/2000/svg" viewBox="0 0 1613.19 344.93">
  <defs>
    <style>
      .cls-1 {
        stroke-width: 0px;
      }
    </style>
  </defs>
  <path class="cls-1" d="m787.22,79.86l1.81,92.28c43.42-104.04,157.41-98.61,153.79-61.52-4.83,49.53-162.8,46.73-177.31,162.84v71.47l218.02-.9-17.19-179.12s2.71,124.84-89.56,116.7c-41.89-3.7-46.14-87.75,24.43-112.18,71.98-24.92,75.99-77.8,75.99-77.8l40.71,252.4h136.6s-6.82-52.45-10.86-139.32c-3.62-77.8-39.07-126.04-121.39-125.47-16.48.11-31.49.33-43.2.68l-191.84-.05Z"/>
  <path class="cls-1" d="m447.82,79.51l-329.75-.45c-23.21,0-40.43,7.62-60.54,19.2C27.51,115.55-4.2,157.7.46,223.81c7.69,109.01,117.61,120.32,117.61,120.32l232.05-.45c28.56.77,60.08-10.9,78.71-32.57,23.58-27.43,41.95-73.19,17.19-125.75l-244.71,2.26s157.86,3.17,189.98,73.28c35.21,63.68-74.18,109.46-87.3,44.78-11.26-55.5-37.09-81.42-105.85-85.94-78.39-5.16-91.82-108.11-8.14-126.65,0,0,47.26-10.94,79.61,29.85,20.81,26.24,128.01,59.26,178.22-43.42Z"/>
  <path class="cls-1" d="m1498.58,80.87s-82.32,25.33-68.75,73.28c5.92,20.93,28.95,21.71,48.85-2.71,6.96-8.54,38.9-38.9,85.94,21.71,58.32,75.15-10.25,170.87-10.25,170.87h-173.7s53.67-104.83,3.92-160.92c4.14,26.49-22.62,66.95-43.71,70.56,24.71-26.24,14.76-147.46-51.28-143.84-38.07,2.09-25.61,51.9-3.62,75.99,19,20.81,62.12,77.69,25.94,158.21h-129.37s-16.86-164.65-13.27-186.25c7.43-44.69,24.35-78.42,69.66-78.71l151.98.9s-21.76,29.57-12.67,58.8c0,0,9-56.54,120.32-57.9Z"/>
  <path class="cls-1" d="m1455.93,73.24M1501.19,0c53.43,58.58,57.88,59.55,107.18,23.39-43.55,43.04-43.35,47.65,4.82,110.71-53.43-58.58-57.88-59.55-107.18-23.39,43.55-43.04,43.35-47.65-4.82-110.71Z"/>
  <path class="cls-1" d="m484.57,79.41s47.24,29.27,93.85,79.61c15.92,17.19,7.45,28.81-7.12,24.88-23.45-6.33-72.46-5.88-84.6,11.76-17.45,25.34,10.47,76.44,12.15,105.39,1.68,28.95-29.74,43.88-29.74,43.88l268.35-.9,2.71-201.74s-18.79,178-67.51,180.03c-43.56,1.81-85.44-31.66-98.01-70.56-3.33-10.31.11-17.36,10.05-15.38,12.57,2.51,51.7,20.64,78.74,5.43,42.02-23.64-11.04-170.78-16.78-164.65l-162.09,2.26Z"/>
</svg>